<svg width="24" height="24" viewBox="0 0 24 24" fill="none" xmlns="http://www.w3.org/2000/svg">
<g clip-path="url(#clip0_104_19)">
<mask id="mask0_104_19" style="mask-type:luminance" maskUnits="userSpaceOnUse" x="0" y="0" width="24" height="24">
<path d="M12 24C18.6274 24 24 18.6274 24 12C24 5.37258 18.6274 0 12 0C5.37258 0 0 5.37258 0 12C0 18.6274 5.37258 24 12 24Z" fill="white"/>
</mask>
<g mask="url(#mask0_104_19)">
<path d="M0 0H24V24H0V0Z" fill="#0052B4"/>
<path d="M12 4.6969L12.3891 5.89221H13.6406L12.6235 6.62815L13.0125 7.82815L11.9953 7.08752L10.9781 7.82815L11.3672 6.62815L10.35 5.89221H11.6063L12 4.6969ZM6.8344 6.8344L7.9594 7.40627L8.84534 6.51565L8.64846 7.75784L9.76877 8.32971L8.52659 8.52659L8.32971 9.76877L7.75784 8.64377L6.51565 8.84534L7.40627 7.95471L6.8344 6.8344ZM4.6969 12L5.89221 11.611V10.3594L6.62815 11.3766L7.82815 10.9875L7.08752 12.0047L7.82815 13.0219L6.62815 12.6328L5.89221 13.65V12.3938L4.6969 12ZM6.8344 17.1656L7.40627 16.0407L6.51565 15.1547L7.75784 15.3516L8.32971 14.2313L8.52659 15.4735L9.76877 15.6703L8.64377 16.2422L8.84534 17.4844L7.95471 16.5938L6.8344 17.1656ZM12 19.3031L11.611 18.1078H10.3594L11.3766 17.3719L10.9875 16.1719L12.0047 16.9125L13.0219 16.1719L12.6328 17.3719L13.65 18.1078H12.3938L12 19.3031ZM17.1656 17.1656L16.0407 16.5938L15.1547 17.4844L15.3516 16.2422L14.2313 15.6703L15.4735 15.4735L15.6703 14.2313L16.2422 15.3563L17.4844 15.1547L16.5938 16.0453L17.1656 17.1656ZM19.3031 12L18.1078 12.3891V13.6406L17.3719 12.6235L16.1719 13.0125L16.9125 11.9953L16.1719 10.9781L17.3719 11.3672L18.1078 10.35V11.6063L19.3031 12ZM17.1656 6.8344L16.5938 7.9594L17.4844 8.84534L16.2422 8.64846L15.6703 9.76877L15.4735 8.52659L14.2313 8.32971L15.3563 7.75784L15.1547 6.51565L16.0453 7.40627L17.1656 6.8344Z" fill="#FFDA44"/>
</g>
</g>
<defs>
<clipPath id="clip0_104_19">
<rect width="24" height="24" fill="white"/>
</clipPath>
</defs>
</svg>
