<svg width="60" height="27" viewBox="0 0 60 27" fill="none" xmlns="http://www.w3.org/2000/svg">
<rect width="60" height="27" rx="9" fill="#32A8A0"/>
<path d="M37.2879 9.70012C38.0533 11.3887 38.2387 13.3497 37.6721 15.2671C36.42 19.5043 31.9701 21.9242 27.733 20.6721C23.4958 19.42 21.0759 14.9701 22.328 10.733C23.5801 6.49586 28.03 4.07593 32.2671 5.32801C33.9059 5.81228 35.2729 6.77497 36.2608 8.0187L31.1336 9.16403L31.8137 6.86242C28.424 5.86076 24.8641 7.79665 23.8624 11.1864C22.8607 14.5761 24.7967 18.136 28.1864 19.1377C31.5761 20.1394 35.136 18.2034 36.1377 14.8137C36.6252 13.1641 36.4169 11.4742 35.684 10.0584L37.2879 9.70012Z" fill="white"/>
</svg>
