<svg width="80" height="80" viewBox="0 0 80 80" fill="none" xmlns="http://www.w3.org/2000/svg">
<g clip-path="url(#clip0_4167_35323)">
<path d="M78.6655 39.9997C78.6655 61.333 61.3322 78.6665 39.9987 78.6665C18.6653 78.6665 1.33203 61.333 1.33203 39.9997C1.33203 18.6664 18.6655 1.33301 39.9987 1.33301C61.332 1.33301 78.6655 18.6664 78.6655 39.9997Z" fill="#FFE100"/>
<path d="M40 1.33301C39.3333 1.33301 38.6667 1.33301 38 1.33301C58.4 2.39973 74.6667 19.333 74.6667 39.9997C74.6667 60.6664 58.4 77.5997 38 78.6665C38.6667 78.6665 39.3333 78.6665 40 78.6665C61.3333 78.6665 78.6667 61.3332 78.6667 39.9997C78.6667 18.6663 61.3333 1.33301 40 1.33301Z" fill="#FFA800"/>
<path d="M39.9987 1.33301C40.6655 1.33301 41.332 1.33301 41.9987 1.33301C21.5988 2.39973 5.33203 19.333 5.33203 39.9997C5.33203 60.6664 21.5988 77.5997 41.9987 78.6665C41.332 78.6665 40.6655 78.6665 39.9987 78.6665C18.6655 78.6665 1.33203 61.333 1.33203 39.9997C1.33203 18.6664 18.6655 1.33301 39.9987 1.33301Z" fill="white"/>
<path d="M56 36.0003C54.1333 36.0003 52.2667 35.2003 50.9333 33.7336C50.4 33.2003 50.5333 32.4003 51.0665 31.8669C51.5998 31.3335 52.3998 31.4669 52.9333 32.0002C53.7333 32.8002 54.8 33.3335 56 33.3335C57.2 33.3335 58.2667 32.8002 59.0667 32.0002C59.6 31.4669 60.4 31.3335 60.9334 31.8669C61.4667 32.4002 61.6001 33.2002 61.0667 33.7336C59.7333 35.2003 57.8667 36.0003 56 36.0003Z" fill="#171717"/>
<path d="M24.0013 36.0003C22.1346 36.0003 20.268 35.2003 19.068 33.7336C18.5347 33.2003 18.668 32.4003 19.2013 31.8669C19.7346 31.3336 20.5346 31.4669 21.068 32.0002C21.868 32.8002 22.9347 33.3335 24.0013 33.3335C25.2013 33.3335 26.268 32.8002 27.068 32.0002C27.6013 31.4669 28.4013 31.3335 28.9347 31.8669C29.4682 32.4003 29.6015 33.2002 29.068 33.7336C27.7346 35.2003 25.868 36.0003 24.0013 36.0003Z" fill="#171717"/>
<path d="M40 80C18 80 0 62 0 40C0 18 18 0 40 0C62 0 80 18 80 40C80 62 62 80 40 80ZM40 2.66672C19.4667 2.66672 2.66672 19.4667 2.66672 40C2.66672 60.5333 19.4667 77.3333 40 77.3333C60.5333 77.3333 77.3333 60.5333 77.3333 40C77.3333 19.4667 60.5333 2.66672 40 2.66672Z" fill="#171717"/>
<path d="M39.9991 61.333C34.7991 61.333 29.8658 59.333 26.1324 55.5997C25.5991 55.0664 25.5991 54.2664 26.1324 53.733C26.6657 53.1997 27.4657 53.1997 27.9991 53.733C31.1991 56.933 35.4658 58.6662 39.9991 58.6662C44.5324 58.6662 48.7991 56.933 51.9991 53.733C52.5324 53.1997 53.3324 53.1997 53.8658 53.733C54.3991 54.2662 54.3991 55.0662 53.8658 55.5997C50.1324 59.333 45.1991 61.333 39.9991 61.333Z" fill="#171717"/>
<path d="M28.8013 21.3336C28.5346 21.3336 28.268 21.3336 28.1346 21.2003C25.6013 19.7336 22.4013 19.7336 19.8679 21.2003C19.2012 21.6003 18.4012 21.3336 18.0012 20.8003C17.6012 20.1336 17.8679 19.3336 18.4012 18.9336C21.7345 16.9336 26.0012 16.9336 29.3345 18.9336C30.0012 19.3336 30.1345 20.1336 29.7345 20.8003C29.6013 21.067 29.2013 21.3336 28.8013 21.3336Z" fill="#171717"/>
<path d="M60.8013 21.3336C60.5346 21.3336 60.2681 21.3336 60.1346 21.2003C57.6013 19.7336 54.4013 19.7336 51.8679 21.2003C51.2012 21.6003 50.4012 21.3336 50.0012 20.8003C49.6012 20.1336 49.8679 19.3336 50.4012 18.9336C53.7345 16.9336 58.0012 16.9336 61.3345 18.9336C62.0012 19.3336 62.1345 20.1336 61.7345 20.8003C61.6013 21.067 61.2013 21.3336 60.8013 21.3336Z" fill="#171717"/>
</g>
<defs>
<clipPath id="clip0_4167_35323">
<rect width="80" height="80" fill="white"/>
</clipPath>
</defs>
</svg>
